<?xml version="1.0" standalone="no"?><!DOCTYPE svg PUBLIC "-//W3C//DTD SVG 1.1//EN" "http://www.w3.org/Graphics/SVG/1.1/DTD/svg11.dtd"><svg t="1694157026017" class="icon" viewBox="0 0 1605 1024" version="1.1" xmlns="http://www.w3.org/2000/svg" p-id="1573" width="401.25" height="256" xmlns:xlink="http://www.w3.org/1999/xlink"><path d="M315.904 753.152c0 39.936-13.312 72.704-39.424 98.304s-59.392 38.4-99.328 38.4h-173.056V134.144h173.056c40.448 0 73.216 12.8 99.328 38.4 26.112 25.6 38.912 58.368 38.912 98.304V753.152z m-67.072-6.656v-470.016c0-24.576-7.68-45.056-23.552-59.904-15.872-15.36-35.84-23.04-60.416-23.04H71.68v636.928h89.6c26.112 0 47.104-7.68 63.488-22.528 15.872-14.848 24.064-35.328 24.064-61.44zM681.984 889.856h-248.32V134.144h245.248v59.392h-178.176v282.112h162.304v60.416h-162.304v294.4h181.248v59.392zM1160.704 889.856H1097.216v-478.72c0-6.656 2.048-26.624 6.656-59.392l-123.904 466.944h-13.312l-123.904-466.944c4.608 33.28 6.656 52.736 6.656 59.392v478.72H786.944V134.144h62.464l122.88 491.52c0.512 2.56 1.536 9.728 2.048 21.504 0-4.608 0.512-12.288 2.048-21.504l122.88-491.52h62.464v755.712zM1601.024 836.096c0 15.872-5.12 28.672-15.36 38.4-10.24 10.24-23.04 14.848-38.912 14.848h-211.456c-15.872 0-28.672-5.12-38.4-14.848-10.24-9.728-14.848-23.04-14.848-38.4V187.392c0-15.872 5.12-28.672 14.848-38.4 9.728-9.728 23.04-14.848 38.4-14.848h211.456c15.872 0 28.672 5.12 38.912 14.848 10.24 10.24 15.36 23.04 15.36 38.4v648.704z m-67.584-5.632V193.536h-184.832v636.928h184.832z" p-id="1574" fill="#43b883"></path></svg>